<svg aria-hidden="true" style="position: absolute; width: 0; height: 0; overflow: hidden;" version="1.1" xmlns="http://www.w3.org/2000/svg" xmlns:xlink="http://www.w3.org/1999/xlink">
<defs>
<symbol id="arrow" viewBox="0 0 32 32">
<path d="M25.996 10.652l-9.996 9.744-9.996-9.744c-0.179-0.174-0.418-0.272-0.668-0.272s-0.489 0.098-0.668 0.272c-0.086 0.085-0.155 0.186-0.202 0.297s-0.071 0.231-0.071 0.353c0 0.121 0.024 0.241 0.071 0.353s0.116 0.213 0.202 0.297l10.634 10.368c0.187 0.182 0.437 0.284 0.698 0.284s0.511-0.102 0.698-0.284l10.634-10.366c0.087-0.085 0.156-0.186 0.204-0.298s0.072-0.232 0.072-0.354-0.024-0.242-0.072-0.354c-0.047-0.112-0.117-0.213-0.204-0.298-0.179-0.174-0.418-0.272-0.668-0.272s-0.489 0.098-0.668 0.272v0.002z"></path>
</symbol>
<symbol id="email" viewBox="0 0 32 32">
<path fill="#512689" style="fill: var(--color1, #512689)" d="M28 6h-24c-0.53 0-1.039 0.211-1.414 0.586s-0.586 0.884-0.586 1.414v16c0 0.53 0.211 1.039 0.586 1.414s0.884 0.586 1.414 0.586h24c0.53 0 1.039-0.211 1.414-0.586s0.586-0.884 0.586-1.414v-16c0-0.53-0.211-1.039-0.586-1.414s-0.884-0.586-1.414-0.586zM25.8 8l-9.8 6.78-9.8-6.78h19.6zM4 24v-15.090l11.43 7.91c0.167 0.116 0.366 0.178 0.57 0.178s0.403-0.062 0.57-0.178l11.43-7.91v15.090h-24z"></path>
</symbol>
<symbol id="eye-open" viewBox="0 0 24 24">
<path d="M0.106 11.553c-0.136 0.274-0.146 0.603 0 0.894 0 0 0.396 0.789 1.12 1.843 0.451 0.656 1.038 1.432 1.757 2.218 0.894 0.979 2.004 1.987 3.319 2.8 1.595 0.986 3.506 1.692 5.698 1.692s4.103-0.706 5.698-1.692c1.315-0.813 2.425-1.821 3.319-2.8 0.718-0.786 1.306-1.562 1.757-2.218 0.724-1.054 1.12-1.843 1.12-1.843 0.136-0.274 0.146-0.603 0-0.894 0 0-0.396-0.789-1.12-1.843-0.451-0.656-1.038-1.432-1.757-2.218-0.894-0.979-2.004-1.987-3.319-2.8-1.595-0.986-3.506-1.692-5.698-1.692s-4.103 0.706-5.698 1.692c-1.315 0.813-2.425 1.821-3.319 2.8-0.719 0.786-1.306 1.561-1.757 2.218-0.724 1.054-1.12 1.843-1.12 1.843zM2.14 12c0.163-0.281 0.407-0.681 0.734-1.158 0.41-0.596 0.94-1.296 1.585-2.001 0.805-0.881 1.775-1.756 2.894-2.448 1.35-0.834 2.901-1.393 4.647-1.393s3.297 0.559 4.646 1.393c1.119 0.692 2.089 1.567 2.894 2.448 0.644 0.705 1.175 1.405 1.585 2.001 0.328 0.477 0.572 0.876 0.734 1.158-0.163 0.281-0.407 0.681-0.734 1.158-0.41 0.596-0.94 1.296-1.585 2.001-0.805 0.881-1.775 1.756-2.894 2.448-1.349 0.834-2.9 1.393-4.646 1.393s-3.297-0.559-4.646-1.393c-1.119-0.692-2.089-1.567-2.894-2.448-0.644-0.705-1.175-1.405-1.585-2.001-0.328-0.477-0.572-0.877-0.735-1.158zM16 12c0-1.104-0.449-2.106-1.172-2.828s-1.724-1.172-2.828-1.172-2.106 0.449-2.828 1.172-1.172 1.724-1.172 2.828 0.449 2.106 1.172 2.828 1.724 1.172 2.828 1.172 2.106-0.449 2.828-1.172 1.172-1.724 1.172-2.828zM14 12c0 0.553-0.223 1.051-0.586 1.414s-0.861 0.586-1.414 0.586-1.051-0.223-1.414-0.586-0.586-0.861-0.586-1.414 0.223-1.051 0.586-1.414 0.861-0.586 1.414-0.586 1.051 0.223 1.414 0.586 0.586 0.861 0.586 1.414z"></path>
</symbol>
<symbol id="eye-close" viewBox="0 0 32 32">
<path fill="none" stroke="#808185" style="stroke: var(--color2, #808185)" stroke-linejoin="round" stroke-linecap="round" stroke-miterlimit="4" stroke-width="2" d="M14.307 6.764c0.553-0.064 1.118-0.098 1.693-0.098 6.219 0 11.2 3.87 13.333 9.333-0.526 1.347-1.225 2.598-2.074 3.717M8.693 8.693c-2.72 1.659-4.825 4.231-6.026 7.307 2.134 5.463 7.115 9.333 13.333 9.333 2.717 0 5.197-0.739 7.307-2.026M13.172 13.171c-0.724 0.724-1.172 1.724-1.172 2.829 0 2.209 1.791 4 4 4 1.105 0 2.105-0.448 2.829-1.172"></path>
<path fill="none" stroke="#808185" style="stroke: var(--color2, #808185)" stroke-linejoin="miter" stroke-linecap="round" stroke-miterlimit="4" stroke-width="2" d="M5.333 5.333l21.333 21.333"></path>
</symbol>
<symbol id="heart" viewBox="0 0 32 32">
<path stroke-linejoin="round" stroke-linecap="round" stroke-miterlimit="4" stroke-width="2" d="M9.7 4c-4.253 0-7.7 3.443-7.7 7.691 0 7.691 9.1 14.683 14 16.309 4.9-1.626 14-8.618 14-16.309 0-4.247-3.448-7.691-7.7-7.691-2.604 0-4.907 1.291-6.3 3.268-0.71-1.010-1.653-1.835-2.75-2.403s-2.314-0.865-3.55-0.865z"></path>
</symbol>
<symbol id="logout" viewBox="0 0 32 32">
<path fill="#f8f8f8" style="fill: var(--color3, #f8f8f8)" d="M15.032 19.432c0.312 0.312 0.816 0.312 1.128 0l2.872-2.872c0.074-0.074 0.133-0.162 0.173-0.259s0.061-0.2 0.061-0.305-0.021-0.209-0.061-0.305c-0.040-0.097-0.099-0.185-0.173-0.259l-2.872-2.872c-0.15-0.15-0.352-0.234-0.564-0.234s-0.414 0.084-0.564 0.234c-0.15 0.15-0.234 0.352-0.234 0.564s0.084 0.414 0.234 0.564l1.504 1.512h-6.936c-0.44 0-0.8 0.36-0.8 0.8s0.36 0.8 0.8 0.8h6.936l-1.504 1.504c-0.312 0.312-0.304 0.824 0 1.128zM21.6 8.8h-11.2c-0.424 0-0.831 0.169-1.131 0.469s-0.469 0.707-0.469 1.131v2.4c0 0.44 0.36 0.8 0.8 0.8s0.8-0.36 0.8-0.8v-1.6c0-0.44 0.36-0.8 0.8-0.8h9.6c0.44 0 0.8 0.36 0.8 0.8v9.6c0 0.44-0.36 0.8-0.8 0.8h-9.6c-0.44 0-0.8-0.36-0.8-0.8v-1.6c0-0.44-0.36-0.8-0.8-0.8s-0.8 0.36-0.8 0.8v2.4c0 0.88 0.72 1.6 1.6 1.6h11.2c0.88 0 1.6-0.72 1.6-1.6v-11.2c0-0.88-0.72-1.6-1.6-1.6z"></path>
</symbol>
<symbol id="phone" viewBox="0 0 32 32">
<path fill="none" stroke="#512689" style="stroke: var(--color1, #512689)" stroke-linejoin="round" stroke-linecap="round" stroke-miterlimit="4" stroke-width="2.6667" d="M14.072 8.32l-4.511-5.207c-0.52-0.6-1.473-0.597-2.077 0.008l-3.709 3.716c-1.104 1.105-1.42 2.747-0.781 4.063 3.816 7.9 10.187 14.28 18.081 18.107 1.315 0.639 2.955 0.323 4.059-0.783l3.744-3.751c0.607-0.607 0.608-1.565 0.003-2.085l-5.227-4.487c-0.547-0.469-1.396-0.408-1.944 0.141l-1.819 1.821c-0.093 0.098-0.216 0.162-0.349 0.183s-0.27-0.002-0.388-0.066c-2.973-1.712-5.439-4.181-7.147-7.156-0.064-0.119-0.087-0.256-0.066-0.389s0.086-0.256 0.183-0.35l1.813-1.815c0.549-0.552 0.609-1.405 0.135-1.953v0.001z"></path>
</symbol>
</defs>
</svg>
