<svg aria-hidden="true" style="position: absolute; width: 0; height: 0; overflow: hidden;" version="1.1" xmlns="http://www.w3.org/2000/svg" xmlns:xlink="http://www.w3.org/1999/xlink">
<defs>
<symbol id="arrow" viewBox="0 0 32 32">
<path d="M25.996 10.652l-9.996 9.744-9.996-9.744c-0.179-0.174-0.418-0.272-0.668-0.272s-0.489 0.098-0.668 0.272c-0.086 0.085-0.155 0.186-0.202 0.297s-0.071 0.231-0.071 0.353c0 0.121 0.024 0.241 0.071 0.353s0.116 0.213 0.202 0.297l10.634 10.368c0.187 0.182 0.437 0.284 0.698 0.284s0.511-0.102 0.698-0.284l10.634-10.366c0.087-0.085 0.156-0.186 0.204-0.298s0.072-0.232 0.072-0.354-0.024-0.242-0.072-0.354c-0.047-0.112-0.117-0.213-0.204-0.298-0.179-0.174-0.418-0.272-0.668-0.272s-0.489 0.098-0.668 0.272v0.002z"></path>
</symbol>
<symbol id="email" viewBox="0 0 32 32">
<path fill="#512689" style="fill: var(--color1, #512689)" d="M28 6h-24c-0.53 0-1.039 0.211-1.414 0.586s-0.586 0.884-0.586 1.414v16c0 0.53 0.211 1.039 0.586 1.414s0.884 0.586 1.414 0.586h24c0.53 0 1.039-0.211 1.414-0.586s0.586-0.884 0.586-1.414v-16c0-0.53-0.211-1.039-0.586-1.414s-0.884-0.586-1.414-0.586zM25.8 8l-9.8 6.78-9.8-6.78h19.6zM4 24v-15.090l11.43 7.91c0.167 0.116 0.366 0.178 0.57 0.178s0.403-0.062 0.57-0.178l11.43-7.91v15.090h-24z"></path>
</symbol>
<symbol id="eye-open" viewBox="0 0 24 24">
<path d="M0.106 11.553c-0.136 0.274-0.146 0.603 0 0.894 0 0 0.396 0.789 1.12 1.843 0.451 0.656 1.038 1.432 1.757 2.218 0.894 0.979 2.004 1.987 3.319 2.8 1.595 0.986 3.506 1.692 5.698 1.692s4.103-0.706 5.698-1.692c1.315-0.813 2.425-1.821 3.319-2.8 0.718-0.786 1.306-1.562 1.757-2.218 0.724-1.054 1.12-1.843 1.12-1.843 0.136-0.274 0.146-0.603 0-0.894 0 0-0.396-0.789-1.12-1.843-0.451-0.656-1.038-1.432-1.757-2.218-0.894-0.979-2.004-1.987-3.319-2.8-1.595-0.986-3.506-1.692-5.698-1.692s-4.103 0.706-5.698 1.692c-1.315 0.813-2.425 1.821-3.319 2.8-0.719 0.786-1.306 1.561-1.757 2.218-0.724 1.054-1.12 1.843-1.12 1.843zM2.14 12c0.163-0.281 0.407-0.681 0.734-1.158 0.41-0.596 0.94-1.296 1.585-2.001 0.805-0.881 1.775-1.756 2.894-2.448 1.35-0.834 2.901-1.393 4.647-1.393s3.297 0.559 4.646 1.393c1.119 0.692 2.089 1.567 2.894 2.448 0.644 0.705 1.175 1.405 1.585 2.001 0.328 0.477 0.572 0.876 0.734 1.158-0.163 0.281-0.407 0.681-0.734 1.158-0.41 0.596-0.94 1.296-1.585 2.001-0.805 0.881-1.775 1.756-2.894 2.448-1.349 0.834-2.9 1.393-4.646 1.393s-3.297-0.559-4.646-1.393c-1.119-0.692-2.089-1.567-2.894-2.448-0.644-0.705-1.175-1.405-1.585-2.001-0.328-0.477-0.572-0.877-0.735-1.158zM16 12c0-1.104-0.449-2.106-1.172-2.828s-1.724-1.172-2.828-1.172-2.106 0.449-2.828 1.172-1.172 1.724-1.172 2.828 0.449 2.106 1.172 2.828 1.724 1.172 2.828 1.172 2.106-0.449 2.828-1.172 1.172-1.724 1.172-2.828zM14 12c0 0.553-0.223 1.051-0.586 1.414s-0.861 0.586-1.414 0.586-1.051-0.223-1.414-0.586-0.586-0.861-0.586-1.414 0.223-1.051 0.586-1.414 0.861-0.586 1.414-0.586 1.051 0.223 1.414 0.586 0.586 0.861 0.586 1.414z"></path>
</symbol>
<symbol id="eye-close" viewBox="0 0 32 32">
<path fill="none" stroke="#808185" style="stroke: var(--color2, #808185)" stroke-linejoin="round" stroke-linecap="round" stroke-miterlimit="4" stroke-width="2" d="M14.307 6.764c0.553-0.064 1.118-0.098 1.693-0.098 6.219 0 11.2 3.87 13.333 9.333-0.526 1.347-1.225 2.598-2.074 3.717M8.693 8.693c-2.72 1.659-4.825 4.231-6.026 7.307 2.134 5.463 7.115 9.333 13.333 9.333 2.717 0 5.197-0.739 7.307-2.026M13.172 13.171c-0.724 0.724-1.172 1.724-1.172 2.829 0 2.209 1.791 4 4 4 1.105 0 2.105-0.448 2.829-1.172"></path>
<path fill="none" stroke="#808185" style="stroke: var(--color2, #808185)" stroke-linejoin="miter" stroke-linecap="round" stroke-miterlimit="4" stroke-width="2" d="M5.333 5.333l21.333 21.333"></path>
</symbol>
<symbol id="heart" viewBox="0 0 32 32">
<path stroke-linejoin="round" stroke-linecap="round" stroke-miterlimit="4" stroke-width="2" d="M9.7 4c-4.253 0-7.7 3.443-7.7 7.691 0 7.691 9.1 14.683 14 16.309 4.9-1.626 14-8.618 14-16.309 0-4.247-3.448-7.691-7.7-7.691-2.604 0-4.907 1.291-6.3 3.268-0.71-1.010-1.653-1.835-2.75-2.403s-2.314-0.865-3.55-0.865z"></path>
</symbol>
<symbol id="logout" viewBox="0 0 32 32">
<path fill="#f8f8f8" style="fill: var(--color3, #f8f8f8)" d="M15.032 19.432c0.312 0.312 0.816 0.312 1.128 0l2.872-2.872c0.074-0.074 0.133-0.162 0.173-0.259s0.061-0.2 0.061-0.305-0.021-0.209-0.061-0.305c-0.040-0.097-0.099-0.185-0.173-0.259l-2.872-2.872c-0.15-0.15-0.352-0.234-0.564-0.234s-0.414 0.084-0.564 0.234c-0.15 0.15-0.234 0.352-0.234 0.564s0.084 0.414 0.234 0.564l1.504 1.512h-6.936c-0.44 0-0.8 0.36-0.8 0.8s0.36 0.8 0.8 0.8h6.936l-1.504 1.504c-0.312 0.312-0.304 0.824 0 1.128zM21.6 8.8h-11.2c-0.424 0-0.831 0.169-1.131 0.469s-0.469 0.707-0.469 1.131v2.4c0 0.44 0.36 0.8 0.8 0.8s0.8-0.36 0.8-0.8v-1.6c0-0.44 0.36-0.8 0.8-0.8h9.6c0.44 0 0.8 0.36 0.8 0.8v9.6c0 0.44-0.36 0.8-0.8 0.8h-9.6c-0.44 0-0.8-0.36-0.8-0.8v-1.6c0-0.44-0.36-0.8-0.8-0.8s-0.8 0.36-0.8 0.8v2.4c0 0.88 0.72 1.6 1.6 1.6h11.2c0.88 0 1.6-0.72 1.6-1.6v-11.2c0-0.88-0.72-1.6-1.6-1.6z"></path>
</symbol>
<symbol id="phone" viewBox="0 0 32 32">
<path fill="none" stroke="#512689" style="stroke: var(--color1, #512689)" stroke-linejoin="round" stroke-linecap="round" stroke-miterlimit="4" stroke-width="2.6667" d="M14.072 8.32l-4.511-5.207c-0.52-0.6-1.473-0.597-2.077 0.008l-3.709 3.716c-1.104 1.105-1.42 2.747-0.781 4.063 3.816 7.9 10.187 14.28 18.081 18.107 1.315 0.639 2.955 0.323 4.059-0.783l3.744-3.751c0.607-0.607 0.608-1.565 0.003-2.085l-5.227-4.487c-0.547-0.469-1.396-0.408-1.944 0.141l-1.819 1.821c-0.093 0.098-0.216 0.162-0.349 0.183s-0.27-0.002-0.388-0.066c-2.973-1.712-5.439-4.181-7.147-7.156-0.064-0.119-0.087-0.256-0.066-0.389s0.086-0.256 0.183-0.35l1.813-1.815c0.549-0.552 0.609-1.405 0.135-1.953v0.001z"></path>
</symbol>
<symbol id="woman" viewBox="0 0 32 32">
<path fill="#ffb300" style="fill: var(--color1, #ffb300)" d="M16 1c-6.7 0-10.4 4.25-10.4 9.85v11.35h20.8v-11.35c0-8.35-5.6-8.2-5.6-8.2s-0.45-1.65-4.8-1.65z"></path>
<path fill="#c28fef" style="fill: var(--color2, #c28fef)" d="M25.55 18.35c-2.6-2.35-9.5 2.15-9.55 2.15-0.050-0.050-6.95-4.5-9.55-2.15-2.4 2.2 0.4 12.65 0.4 12.65h18.25c0.050 0 2.85-10.45 0.45-12.65z"></path>
<path fill="#ffdd67" style="fill: var(--color3, #ffdd67)" d="M8.85 16.6s-1.55-0.1-1.95-2.35c-0.3-1.75 0.75-2.3 0.75-2.3 3.85-1.95 9.65-7.15 9.65-7.15s2.7 2.7 5.8 4.45c0 0 1.2 0 1.55 1.9 0.4 2.25-1.1 2.9-1.1 2.9 0.6 3.4-3.25 8.25-6 8.75-2.75 0.45-8.1-2.8-8.7-6.2z"></path>
<path fill="#937237" style="fill: var(--color4, #937237)" d="M14.3 20.45c-0.050 0-0.1-0.050-0.1-0.1-0.050-0.35 1.1-1.35 2.6-1.6 1.55-0.25 2.9 0.25 3 0.6 0 0.050 0 0.1-0.050 0.15 0 0-1.3-0.55-2.85-0.25-1.5 0.25-2.6 1.2-2.6 1.2z"></path>
<path fill="#937237" style="fill: var(--color4, #937237)" d="M9.050 11.5c-0.050-0.050-0.050-0.050-0.050-0.1 0-0.3 1-0.75 2.3-0.8 1.3-0.1 2.4 0.2 2.4 0.55 0 0.050 0 0.1-0.050 0.1 0 0-1.050-0.2-2.3-0.1-1.3 0.050-2.3 0.35-2.3 0.35z"></path>
<path fill="#937237" style="fill: var(--color4, #937237)" d="M21.4 8.35c0.050-0.050 0.050-0.1 0-0.1-0.1-0.3-1.25-0.25-2.45 0.2s-2.050 1.2-1.95 1.45c0 0.050 0.050 0.050 0.1 0.1 0 0 0.85-0.6 2.050-1.050 1.2-0.5 2.25-0.6 2.25-0.6z"></path>
<path fill="#eba352" style="fill: var(--color5, #eba352)" d="M18.5 17.2c0.1 0.5-1.4 0.9-1.75 1-0.35 0.050-1.9 0.15-1.95-0.35-0.050-0.050 3.65-0.9 3.7-0.65z"></path>
<path fill="#f5f5f5" style="fill: var(--color6, #f5f5f5)" d="M13.55 14.9c0.45-0.1 0.2-1.2 0.2-1.2-1.85-2.75-4.45-0.35-4.45-0.35-1.050 0.7 0.9 2.050 1.15 2.050 1.3 0.15 3.1-0.5 3.1-0.5z"></path>
<path fill="#664e27" style="fill: var(--color7, #664e27)" d="M13 13.55c0.15 0.8-0.4 1.5-1.15 1.65-0.8 0.15-1.5-0.4-1.65-1.15-0.15-0.8 0.4-1.5 1.15-1.65 0.8-0.15 1.55 0.4 1.65 1.15z"></path>
<path fill="#231f20" style="fill: var(--color8, #231f20)" d="M12.1 13.75c0.050 0.25-0.15 0.55-0.4 0.6s-0.55-0.15-0.6-0.4c-0.050-0.25 0.15-0.55 0.4-0.6 0.3-0.050 0.55 0.1 0.6 0.4z"></path>
<path fill="#231f20" style="fill: var(--color8, #231f20)" d="M14.2 14.050c-0.45-0.4-0.85-0.75-1.35-1-0.45-0.25-0.95-0.35-1.5-0.3-0.5 0.050-1 0.25-1.55 0.45-0.25 0.1-0.55 0.2-0.85 0.25s-0.65 0.1-0.85-0.1c0.3 0.050 0.55-0.050 0.8-0.15s0.5-0.25 0.75-0.4 1.050-0.55 1.7-0.6c0.3 0 0.65 0 0.95 0.1s0.6 0.25 0.85 0.4c0.4 0.35 0.8 0.85 1.050 1.35z"></path>
<path fill="#f5f5f5" style="fill: var(--color6, #f5f5f5)" d="M18.55 14c-0.45 0.1-0.55-1.050-0.55-1.050 0.8-3.2 4.1-1.85 4.1-1.85 1.25 0.3-0.15 2.2-0.4 2.35-1.2 0.55-3.15 0.55-3.15 0.55z"></path>
<path fill="#664e27" style="fill: var(--color7, #664e27)" d="M21.45 12.1c0.15 0.8-0.4 1.5-1.15 1.65-0.8 0.15-1.5-0.4-1.65-1.15-0.15-0.8 0.4-1.5 1.15-1.65 0.8-0.15 1.5 0.35 1.65 1.15z"></path>
<path fill="#231f20" style="fill: var(--color8, #231f20)" d="M20.55 12.25c0.050 0.25-0.15 0.55-0.4 0.6s-0.55-0.15-0.6-0.4c-0.050-0.25 0.15-0.55 0.4-0.6 0.3-0.050 0.55 0.15 0.6 0.4z"></path>
<path fill="#231f20" style="fill: var(--color8, #231f20)" d="M17.7 13.45c0.050-0.55 0.25-1.15 0.6-1.65 0.15-0.25 0.4-0.5 0.65-0.65 0.25-0.2 0.55-0.3 0.85-0.4 0.6-0.15 1.2-0.1 1.8 0 0.3 0.050 0.55 0.1 0.85 0.15 0.25 0.050 0.55 0.050 0.8-0.1-0.15 0.25-0.5 0.35-0.8 0.4s-0.6 0.050-0.85 0.050-1.1 0-1.6 0.1-0.95 0.4-1.3 0.8c-0.45 0.3-0.7 0.8-1 1.3z"></path>
<path fill="#231f20" style="fill: var(--color8, #231f20)" opacity="0.2" d="M8.3 24.95l-0.4 6.050h5.55l-0.65-6.4h-0.4c-0.050-0.35-0.1-0.7-0.55-1.6-0.75-1.65-3.7-1.050-4.85-0.75l-1 2.75c1.8 0.2 2.3-0.050 2.3-0.050z"></path>
<path fill="#ffdd67" style="fill: var(--color3, #ffdd67)" d="M8.7 25.2v-0.55s-5.1 1.050-7-0.7c-2.4-2.25 1.7-1 4.8-1.75 1.1-0.3 4.050-0.85 4.85 0.75 0.85 1.75 0.65 2.25 0.65 2.25h-3.3z"></path>
<path fill="#c28fef" style="fill: var(--color2, #c28fef)" d="M8.15 31l0.4-6.15h3.85l0.55 6.15z"></path>
<path fill="#231f20" style="fill: var(--color8, #231f20)" opacity="0.2" d="M23.7 24.95l0.4 6.050h-5.55l0.65-6.4h0.4c0.050-0.35 0.1-0.7 0.55-1.6 0.75-1.65 3.7-1.050 4.85-0.75l1 2.8c-1.8 0.15-2.3-0.1-2.3-0.1z"></path>
<path fill="#ffdd67" style="fill: var(--color3, #ffdd67)" d="M23.3 25.2v-0.55s5.1 1.050 7-0.7c2.4-2.25-1.7-1-4.8-1.75-1.1-0.3-4.050-0.85-4.85 0.75-0.85 1.75-0.65 2.25-0.65 2.25h3.3z"></path>
<path fill="#c28fef" style="fill: var(--color2, #c28fef)" d="M23.85 31l-0.4-6.15h-3.85l-0.55 6.15z"></path>
</symbol>
<symbol id="upload" viewBox="0 0 32 32">
<path d="M17.379 18.675c0.002 0.736-0.593 1.335-1.329 1.337s-1.335-0.593-1.337-1.329l2.667-0.008z"></path>
<path d="M12.958 8.965l1.718-1.729 0.036 11.448 2.667-0.008-0.036-11.448 1.729 1.718c0.522 0.519 1.367 0.516 1.886-0.006s0.516-1.367-0.006-1.886l-4.958-4.927-4.927 4.958 1.892 1.88z"></path>
<path d="M11.067 7.085c-0.519 0.522-0.516 1.367 0.006 1.886s1.367 0.516 1.886-0.006l-1.892-1.88z"></path>
<path d="M5.333 16c0-1.473 1.194-2.667 2.667-2.667 0.736 0 1.333-0.597 1.333-1.333s-0.597-1.333-1.333-1.333c-2.946 0-5.333 2.388-5.333 5.333v8c0 2.945 2.388 5.333 5.333 5.333h14.667c3.682 0 6.667-2.985 6.667-6.667v-6.667c0-2.946-2.388-5.333-5.333-5.333-0.736 0-1.333 0.597-1.333 1.333s0.597 1.333 1.333 1.333c1.473 0 2.667 1.194 2.667 2.667v6.667c0 2.209-1.791 4-4 4h-14.667c-1.473 0-2.667-1.194-2.667-2.667v-8z"></path>
</symbol>
<symbol id="sad" viewBox="0 0 32 32">
<path fill="#fddf6d" style="fill: var(--color1, #fddf6d)" d="M0.625 16c0 8.491 6.883 15.375 15.375 15.375s15.375-6.883 15.375-15.375v0c0-8.491-6.883-15.375-15.375-15.375s-15.375 6.883-15.375 15.375v0z"></path>
<path fill="#fcc56b" style="fill: var(--color2, #fcc56b)" d="M19.295 29.105c-8.491 0-15.375-6.883-15.375-15.375 0-4.537 1.965-8.614 5.090-11.428-4.977 2.545-8.385 7.723-8.385 13.697 0 8.491 6.883 15.375 15.375 15.375 3.955 0 7.56-1.494 10.284-3.947-2.097 1.072-4.473 1.677-6.99 1.677z"></path>
<path fill="#7f184c" style="fill: var(--color3, #7f184c)" d="M22.995 26.077h-7.466c-0.345 0-0.625-0.28-0.625-0.625s0.28-0.625 0.625-0.625h7.466c0.346 0 0.625 0.28 0.625 0.625s-0.28 0.625-0.625 0.625zM13.818 19.641c-1.521 0-2.895-0.389-3.676-1.041-0.265-0.221-0.301-0.616-0.079-0.881s0.616-0.301 0.881-0.079c0.546 0.456 1.674 0.75 2.874 0.75 1.171 0 2.315-0.3 2.914-0.764 0.273-0.212 0.666-0.162 0.878 0.111s0.162 0.666-0.111 0.878c-0.829 0.643-2.205 1.027-3.68 1.027zM24.667 19.641c-1.521 0-2.895-0.389-3.676-1.041-0.265-0.221-0.301-0.616-0.079-0.881s0.616-0.301 0.881-0.079c0.546 0.456 1.674 0.75 2.874 0.75 1.171 0 2.315-0.3 2.914-0.764 0.273-0.212 0.666-0.162 0.878 0.111s0.162 0.666-0.111 0.878c-0.829 0.643-2.205 1.027-3.68 1.027zM10.856 16.44c-0.232 0-0.449-0.026-0.642-0.079-0.333-0.092-0.528-0.437-0.436-0.77s0.437-0.528 0.77-0.436c0.308 0.085 0.94 0.025 1.658-0.3 0.703-0.319 1.18-0.769 1.341-1.075s0.539-0.423 0.845-0.261c0.306 0.161 0.423 0.54 0.261 0.845-0.328 0.621-1.049 1.231-1.931 1.631-0.644 0.292-1.302 0.446-1.866 0.446zM27.468 16.44c-0.564 0-1.222-0.154-1.866-0.446-0.881-0.399-1.603-1.009-1.93-1.63-0.161-0.306-0.044-0.684 0.262-0.845s0.684-0.044 0.845 0.261c0.161 0.305 0.638 0.756 1.341 1.075 0.718 0.326 1.35 0.386 1.658 0.3 0.333-0.092 0.677 0.103 0.77 0.436s-0.103 0.677-0.436 0.77c-0.193 0.053-0.409 0.079-0.641 0.079z"></path>
<path fill="#000" style="fill: var(--color4, #000)" d="M22.223 1.255c-0.318-0.135-0.685 0.014-0.82 0.333s0.015 0.685 0.333 0.819c5.475 2.313 9.013 7.649 9.013 13.592 0 8.133-6.616 14.749-14.749 14.749s-14.749-6.616-14.749-14.749 6.616-14.749 14.749-14.749c0.346 0 0.625-0.28 0.625-0.625s-0.28-0.625-0.625-0.625c-8.822 0-16 7.178-16 16s7.178 16 16 16c8.822 0 16-7.178 16-16 0-6.448-3.838-12.235-9.777-14.745z"></path>
<path fill="#000" style="fill: var(--color4, #000)" d="M15.528 24.826c-0.345 0-0.625 0.28-0.625 0.625s0.28 0.625 0.625 0.625h7.466c0.346 0 0.625-0.28 0.625-0.625s-0.28-0.625-0.625-0.625h-7.466zM10.944 17.639c-0.265-0.221-0.66-0.186-0.881 0.079s-0.186 0.66 0.079 0.881c0.781 0.652 2.155 1.041 3.676 1.041 1.476 0 2.852-0.384 3.681-1.027 0.273-0.212 0.323-0.605 0.111-0.878s-0.605-0.323-0.878-0.111c-0.599 0.464-1.742 0.765-2.914 0.765-1.2-0-2.329-0.295-2.874-0.75zM20.991 18.599c0.781 0.652 2.155 1.041 3.676 1.041 1.476 0 2.852-0.384 3.681-1.027 0.273-0.212 0.323-0.605 0.111-0.878s-0.605-0.323-0.878-0.111c-0.599 0.464-1.742 0.765-2.914 0.765-1.2 0-2.328-0.295-2.874-0.75-0.265-0.221-0.66-0.186-0.881 0.079s-0.186 0.66 0.079 0.881zM10.856 16.44c0.564 0 1.222-0.154 1.866-0.446 0.881-0.4 1.603-1.009 1.931-1.63 0.161-0.306 0.044-0.684-0.261-0.845s-0.684-0.044-0.845 0.261c-0.161 0.305-0.638 0.756-1.341 1.075-0.718 0.326-1.35 0.386-1.658 0.3-0.333-0.092-0.678 0.103-0.77 0.436s0.103 0.678 0.436 0.77c0.193 0.053 0.409 0.079 0.642 0.079zM25.602 15.994c0.644 0.292 1.302 0.446 1.866 0.446 0.232 0 0.449-0.026 0.642-0.080 0.333-0.092 0.528-0.437 0.436-0.77-0.075-0.267-0.317-0.459-0.603-0.459-0.059 0-0.117 0.008-0.172 0.024l0.004-0.001c-0.308 0.085-0.939 0.025-1.658-0.3-0.703-0.319-1.18-0.769-1.341-1.075s-0.539-0.423-0.845-0.261c-0.306 0.161-0.423 0.54-0.262 0.845 0.328 0.621 1.049 1.231 1.93 1.63z"></path>
<path fill="#000" style="fill: var(--color4, #000)" d="M19.318 1.178c0 0.345 0.28 0.625 0.625 0.625s0.625-0.28 0.625-0.625v0c0-0.345-0.28-0.625-0.625-0.625s-0.625 0.28-0.625 0.625v0z"></path>
</symbol>
</defs>
</svg>
