<svg xmlns="http://www.w3.org/2000/svg" xmlns:xlink="http://www.w3.org/1999/xlink" viewBox="0 0 32 32">
<path fill="#84dbff" style="fill: var(--color1, #84dbff)" d="M32 16c0 8.837-7.163 16-16 16s-16-7.163-16-16c0-8.837 7.163-16 16-16s16 7.163 16 16z"></path>
<path fill="#e6e9ee" style="fill: var(--color2, #e6e9ee)" d="M19.276 25.222c-0.151 0.957-0.328 2.016-0.605 3.124-0.277 1.134-0.605 2.318-1.033 3.553-0.554 0.050-1.083 0.076-1.663 0.076-0.554 0-1.109-0.025-1.663-0.076-0.857-2.469-1.361-4.762-1.638-6.677 0.756-2.394 3.276-2.57 3.276-2.57s2.595 0.202 3.326 2.57z"></path>
<path fill="#2b3b4e" style="fill: var(--color3, #2b3b4e)" d="M31.572 19.729c-0.353 1.487-0.907 2.898-1.663 4.183-0.731 1.285-1.663 2.469-2.721 3.502l-0.050-0.126h-0.025c0 0 0-0.025 0.025-0.050l-1.386-4.283-5.594-2.671 3.855-1.865c-0.302 1.31 0.277 3.427 0.277 3.376 0.504-1.562 2.167-1.688 2.167-1.688s1.663 0.126 2.167 1.688c0.025 0.050 0.58-2.091 0.277-3.376l2.671 1.31z"></path>
<path fill="#f9b54c" style="fill: var(--color4, #f9b54c)" d="M26.457 20.107v0c-2.243-1.083-1.991-2.494-1.991-2.494v0c0-0.025 0-0.050 0.025-0.076 0.554 0.68 1.235 1.109 1.991 1.109s1.436-0.428 1.991-1.109c0 0.025 0 0.050 0 0.050v0c-0.025 0.050 0.227 1.436-2.016 2.52z"></path>
<path fill="#fff" style="fill: var(--color5, #fff)" d="M28.447 17.638c0 0 0.252 1.411-1.991 2.494 0 0 1.663 0.126 2.167 1.688 0 0.050 0.907-3.351-0.176-4.183z"></path>
<path fill="#fff" style="fill: var(--color5, #fff)" d="M24.466 17.638c0 0-0.252 1.411 1.991 2.494 0 0-1.663 0.126-2.167 1.688 0 0.050-0.932-3.351 0.176-4.183z"></path>
<path fill="#2b3b4e" style="fill: var(--color3, #2b3b4e)" d="M0.428 19.729c0.353 1.487 0.907 2.898 1.663 4.183 0.731 1.285 1.663 2.469 2.721 3.502l0.050-0.126h0.025c0 0 0-0.025-0.025-0.050l1.386-4.283 5.569-2.671-3.855-1.865c0.302 1.31-0.277 3.427-0.277 3.376-0.504-1.562-2.167-1.688-2.167-1.688s-1.663 0.126-2.167 1.688c-0.025 0.050-0.58-2.091-0.277-3.376l-2.646 1.31z"></path>
<path fill="#f9b54c" style="fill: var(--color4, #f9b54c)" d="M5.543 20.107v0c2.243-1.083 1.991-2.494 1.991-2.494v0c0-0.025 0-0.050-0.025-0.076-0.554 0.68-1.235 1.109-1.991 1.109-0.731 0-1.436-0.428-1.991-1.109 0 0.025 0 0.050 0 0.050v0c0.025 0.050-0.227 1.436 2.016 2.52z"></path>
<path fill="#fff" style="fill: var(--color5, #fff)" d="M3.553 17.638c0 0-0.252 1.411 1.991 2.494 0 0-1.663 0.126-2.167 1.688 0 0.050-0.932-3.351 0.176-4.183z"></path>
<path fill="#fff" style="fill: var(--color5, #fff)" d="M7.534 17.638c0 0 0.252 1.411-1.991 2.494 0 0 1.663 0.126 2.167 1.688 0 0.050 0.907-3.351-0.176-4.183z"></path>
<path fill="#ffd05b" style="fill: var(--color6, #ffd05b)" d="M28.976 16.050c-0.252 0.806-0.353 1.235-0.378 1.31v0c-0.58 0.781-1.335 1.335-2.167 1.335-0.781 0-1.487-0.479-2.041-1.209 0 0 0 0 0.025 0-1.209-1.487-0.378-4.258-0.378-4.258 0.605 0.68 2.57 0.731 2.57 0.731-0.806-0.126-0.983-0.756-1.008-0.832 0.151 0.403 2.041 0.655 2.041 0.655 1.991 0.328 1.335 2.268 1.335 2.268z"></path>
<path fill="#2b3b4e" style="fill: var(--color3, #2b3b4e)" d="M25.298 10.356c0 0 2.671-1.058 4.057 1.361 1.461 2.595-0.378 5.417-0.756 5.644 0 0 0.101-0.454 0.378-1.31 0 0 0.655-1.915-1.31-2.217 0 0-1.915-0.252-2.041-0.68 0 0 0.151 0.706 1.008 0.832 0 0-1.965-0.050-2.57-0.731 0 0-0.831 2.772 0.378 4.258 0 0-2.117-1.688-1.865-4.283 0-0.025-0.126-3.603 2.721-2.872z"></path>
<path fill="#ffd05b" style="fill: var(--color6, #ffd05b)" d="M8.869 13.833c0 2.167-1.487 4.863-3.326 4.863s-3.301-2.696-3.301-4.863 1.487-3.024 3.326-3.024 3.301 0.832 3.301 3.024z"></path>
<path fill="#2b3b4e" style="fill: var(--color3, #2b3b4e)" d="M4.409 10.356c0 0 2.671-1.058 4.057 1.361 1.461 2.595-0.378 5.417-0.756 5.644 0 0 0.101-0.454 0.378-1.31 0 0 0.655-1.915-1.31-2.217 0 0-1.915-0.252-2.041-0.68 0 0 0.126 0.706 1.008 0.832 0 0-1.965-0.050-2.57-0.731 0 0-0.832 2.772 0.378 4.258 0 0-2.117-1.688-1.865-4.283-0.025-0.025-0.151-3.603 2.721-2.872z"></path>
<path fill="#f9b54c" style="fill: var(--color4, #f9b54c)" d="M16.025 22.627h-0.025c-3.402-1.638-3.024-3.78-3.024-3.78v0c0-0.025 0-0.076 0.025-0.101 0.832 1.008 1.89 1.688 3.024 1.688s2.167-0.68 3.024-1.688c0 0.025 0.025 0.076 0.025 0.101v0c-0.050 0 0.328 2.142-3.049 3.78z"></path>
<path fill="#f1543f" style="fill: var(--color7, #f1543f)" d="M16.025 22.627c-0.025 0.025-0.025 0.025 0 0-0.025 0-0.025 0-0.025 0h0.025z"></path>
<path fill="#f1543f" style="fill: var(--color7, #f1543f)" d="M17.209 22.98l-0.403 1.159h-1.613l-0.403-1.159c0.655-0.277 1.209-0.328 1.209-0.328s0.554 0.025 1.209 0.328z"></path>
<path fill="#ff7058" style="fill: var(--color8, #ff7058)" d="M14.11 31.874c0.63 0.076 1.26 0.126 1.89 0.126s1.285-0.050 1.89-0.126l-1.083-7.735h-1.613l-1.083 7.735z"></path>
<path fill="#324a5e" style="fill: var(--color9, #324a5e)" d="M27.187 27.439c-2.52 2.469-5.846 4.107-9.55 4.485 0.857-2.469 1.361-4.762 1.638-6.677 0.025 0.076 0.882-3.175 0.428-5.165l6.047 2.923 1.436 4.435z"></path>
<path fill="#324a5e" style="fill: var(--color9, #324a5e)" d="M27.162 27.313h-0.025c0 0 0-0.025 0.025-0.050v0.050z"></path>
<path fill="#324a5e" style="fill: var(--color9, #324a5e)" d="M14.337 31.924c-3.704-0.378-7.030-2.016-9.55-4.485l1.436-4.435 6.047-2.923c-0.454 1.991 0.403 5.216 0.428 5.165 0.302 1.915 0.781 4.183 1.638 6.677z"></path>
<path fill="#fff" style="fill: var(--color5, #fff)" d="M19.024 18.847c0 0 0.378 2.142-3.024 3.805 0 0 2.545 0.202 3.276 2.57 0.050 0.101 1.436-5.115-0.252-6.375z"></path>
<path fill="#fff" style="fill: var(--color5, #fff)" d="M19.528 24.265c0.025-0.126 0.050-0.252 0.076-0.403-0.025 0.151-0.050 0.277-0.076 0.403z"></path>
<path fill="#fff" style="fill: var(--color5, #fff)" d="M12.976 18.847c0 0-0.378 2.142 3.024 3.805 0 0-2.545 0.202-3.276 2.57-0.050 0.101-1.436-5.115 0.252-6.375z"></path>
<path fill="#fff" style="fill: var(--color5, #fff)" d="M12.397 23.887c0.025 0.151 0.050 0.277 0.076 0.403-0.025-0.151-0.050-0.277-0.076-0.403z"></path>
<path fill="#ffd05b" style="fill: var(--color6, #ffd05b)" d="M19.855 16.428c-0.403 1.235-0.554 1.915-0.58 1.991v0c-0.882 1.209-2.016 2.016-3.276 2.016-1.184 0-2.268-0.731-3.124-1.839l0.025 0.025c-1.839-2.293-0.58-6.476-0.58-6.476 0.932 1.058 3.931 1.134 3.931 1.134-1.31-0.202-1.512-1.26-1.512-1.26 0.202 0.63 3.124 1.033 3.124 1.033 2.973 0.428 1.991 3.376 1.991 3.376z"></path>
<path fill="#324a5e" style="fill: var(--color9, #324a5e)" d="M20.409 9.827c-2.091-3.704-6.173-2.066-6.173-2.066-4.359-1.109-4.183 4.359-4.183 4.359-0.378 3.981 2.822 6.551 2.822 6.551-1.865-2.268-0.58-6.476-0.58-6.476 0.932 1.058 3.931 1.134 3.931 1.134-1.31-0.202-1.512-1.26-1.512-1.26 0.202 0.63 3.124 1.033 3.124 1.033 2.998 0.454 2.016 3.376 2.016 3.376-0.428 1.31-0.58 1.991-0.58 1.991 0.58-0.403 3.376-4.687 1.134-8.643z"></path>
</svg>
